# xmcd
# 
# Track frame offsets:
#     150
#     17447
#     82593
#     99498
#     135506
#     153694
#     195109
#     211192
# 
# Disc length: 3066
# 
# Revision: 0
# Processed by: cddbd v1.5.2PL0 Copyright (c) Steve Scherf et al.
# Submitted via: fre:ac v1.0.31
# 
DISCID=4f0bf808
DTITLE=Hans Theessink and Michael Köhlmeier - Westernhelden CD1
DYEAR=2019
DGENRE=Blues
TTITLE0=Wayfaring Stranger
TTITLE1=The Wild Bunch
TTITLE2=Billy The Kid
TTITLE3=Doc Holliday
TTITLE4=Blowing Down
TTITLE5=Jesse James
TTITLE6=Jesse James
TTITLE7=Old Man Trouble
EXTD=
EXTT0=
EXTT1=
EXTT2=
EXTT3=
EXTT4=
EXTT5=
EXTT6=
EXTT7=
PLAYORDER=
